# xmcd
#
# Track frame offsets:
#	150
#	13935
#	25755
#	36615
#	48294
#	60011
#	69655
#	85576
#	101832
#	112161
#	126023
#	137700
#	148266
#	158266
#
# Disc length: 2265 seconds
#
# Revision: 1
# Processed by: cddbd v1.5.2PL0 Copyright (c) Steve Scherf et al.
# Submitted via: EasyCDDAExtractor 16.0.6.1
#
DISCID=bc08d70e
DTITLE=Teddy, Chano, Jan and John - Wanted
DYEAR=1974
DGENRE=Country - Denmark
TTITLE0=Take Me Home, Country Roads
TTITLE1=Gipsy Feet
TTITLE2=Do What You Do, Do Well
TTITLE3=Are You Working Like A Devil
TTITLE4=I Had A Bird
TTITLE5=A House Full Of Love
TTITLE6=Garden Party
TTITLE7=Summer Wine
TTITLE8=Baby, It's Gonna Take A Little Bit Longer
TTITLE9=Jackson
TTITLE10=Streets Of Laredo
TTITLE11=A Perfect Match
TTITLE12=Kiss An Angel Goodmorning
TTITLE13=I'm Just A Travelling Minstrel Man
EXTD=
EXTT0=
EXTT1=
EXTT2=
EXTT3=
EXTT4=
EXTT5=
EXTT6=
EXTT7=
EXTT8=
EXTT9=
EXTT10=
EXTT11=
EXTT12=
EXTT13=
PLAYORDER=
